<svg width="883" height="298" viewBox="0 0 883 298" fill="none" xmlns="http://www.w3.org/2000/svg">
<path d="M88.75 35.25V149H66.6406L30.9375 77.8281V149H9.21875V35.25H31.0156L67.0312 107.203V35.25H88.75ZM170.312 130.094V149H123.047V130.094H170.312ZM130.078 35.25V149H107.188V35.25H130.078ZM199.609 131.969L217.812 35.25H229.844L233.438 50.25L213.906 149H200.859L199.609 131.969ZM193.359 35.25L208.047 132.203L205.547 149H191.172L170.781 35.25H193.359ZM246.641 131.812L261.25 35.25H283.75L263.516 149H249.062L246.641 131.812ZM236.797 35.25L255.156 132.516L253.672 149H240.625L221.172 50.0938L224.844 35.25H236.797ZM366.25 150.562C360.469 150.562 355.339 149.677 350.859 147.906C346.432 146.135 342.682 143.583 339.609 140.25C336.536 136.865 334.193 132.776 332.578 127.984C330.964 123.193 330.156 117.724 330.156 111.578V104.625C330.156 97.75 330.938 91.7344 332.5 86.5781C334.062 81.3698 336.276 76.9948 339.141 73.4531C342.005 69.9115 345.521 67.2812 349.688 65.5625C353.906 63.7917 358.672 62.9062 363.984 62.9062C369.297 62.9062 373.958 63.7917 377.969 65.5625C382.031 67.2812 385.391 69.8854 388.047 73.375C390.703 76.8125 392.708 81.0833 394.062 86.1875C395.417 91.2917 396.094 97.2292 396.094 104V114H339.453V98.6094H374.609V96.6562C374.609 93.2188 374.245 90.3542 373.516 88.0625C372.786 85.7188 371.641 83.974 370.078 82.8281C368.516 81.6823 366.432 81.1094 363.828 81.1094C361.641 81.1094 359.792 81.5521 358.281 82.4375C356.771 83.3229 355.573 84.7031 354.688 86.5781C353.802 88.4531 353.151 90.901 352.734 93.9219C352.318 96.8906 352.109 100.458 352.109 104.625V111.578C352.109 115.484 352.448 118.766 353.125 121.422C353.802 124.026 354.792 126.161 356.094 127.828C357.448 129.443 359.089 130.615 361.016 131.344C362.943 132.021 365.182 132.359 367.734 132.359C371.589 132.359 375.052 131.682 378.125 130.328C381.25 128.922 383.906 127.021 386.094 124.625L394.844 137.906C393.333 139.885 391.25 141.865 388.594 143.844C385.938 145.823 382.76 147.438 379.062 148.688C375.365 149.938 371.094 150.562 366.25 150.562ZM457.969 119.078C457.969 117.047 457.786 115.198 457.422 113.531C457.057 111.865 456.276 110.328 455.078 108.922C453.932 107.516 452.24 106.109 450 104.703C447.812 103.297 444.948 101.839 441.406 100.328C437.188 98.5573 433.099 96.6823 429.141 94.7031C425.182 92.6719 421.615 90.3281 418.438 87.6719C415.26 85.0156 412.734 81.8906 410.859 78.2969C409.036 74.651 408.125 70.3802 408.125 65.4844C408.125 60.6927 408.984 56.3438 410.703 52.4375C412.474 48.5312 414.974 45.1979 418.203 42.4375C421.432 39.625 425.208 37.4635 429.531 35.9531C433.906 34.4427 438.776 33.6875 444.141 33.6875C451.432 33.6875 457.734 35.1979 463.047 38.2188C468.411 41.2396 472.552 45.3802 475.469 50.6406C478.438 55.901 479.922 61.9427 479.922 68.7656H457.109C457.109 65.5365 456.641 62.6979 455.703 60.25C454.818 57.75 453.385 55.7969 451.406 54.3906C449.427 52.9844 446.875 52.2812 443.75 52.2812C440.833 52.2812 438.411 52.8802 436.484 54.0781C434.609 55.224 433.203 56.8125 432.266 58.8438C431.38 60.8229 430.938 63.0625 430.938 65.5625C430.938 67.4375 431.38 69.1302 432.266 70.6406C433.203 72.099 434.479 73.4271 436.094 74.625C437.708 75.7708 439.609 76.8906 441.797 77.9844C444.036 79.0781 446.484 80.1458 449.141 81.1875C454.297 83.2188 458.854 85.4583 462.812 87.9062C466.771 90.3021 470.078 93.0104 472.734 96.0312C475.391 99 477.396 102.359 478.75 106.109C480.104 109.859 480.781 114.13 480.781 118.922C480.781 123.661 479.948 127.984 478.281 131.891C476.667 135.745 474.297 139.078 471.172 141.891C468.047 144.651 464.271 146.786 459.844 148.297C455.469 149.807 450.573 150.562 445.156 150.562C439.896 150.562 434.922 149.833 430.234 148.375C425.547 146.865 421.406 144.599 417.812 141.578C414.271 138.505 411.484 134.625 409.453 129.938C407.422 125.198 406.406 119.599 406.406 113.141H429.297C429.297 116.578 429.635 119.521 430.312 121.969C430.99 124.365 432.031 126.292 433.438 127.75C434.844 129.156 436.562 130.224 438.594 130.953C440.677 131.63 443.047 131.969 445.703 131.969C448.724 131.969 451.12 131.396 452.891 130.25C454.714 129.104 456.016 127.568 456.797 125.641C457.578 123.714 457.969 121.526 457.969 119.078ZM517.031 80.7188V181.5H495.234V64.4688H515.391L517.031 80.7188ZM560.938 103.844V109.469C560.938 116.083 560.365 121.943 559.219 127.047C558.073 132.099 556.354 136.396 554.062 139.938C551.823 143.427 549.01 146.083 545.625 147.906C542.24 149.677 538.281 150.562 533.75 150.562C529.531 150.562 525.885 149.573 522.812 147.594C519.792 145.562 517.24 142.776 515.156 139.234C513.073 135.693 511.406 131.552 510.156 126.812C508.906 122.073 507.943 116.995 507.266 111.578V102.828C507.891 97.0469 508.802 91.7344 510 86.8906C511.198 81.9948 512.839 77.75 514.922 74.1562C517.057 70.5625 519.635 67.8021 522.656 65.875C525.729 63.8958 529.375 62.9062 533.594 62.9062C538.177 62.9062 542.161 63.7396 545.547 65.4062C548.984 67.0729 551.823 69.599 554.062 72.9844C556.354 76.3177 558.073 80.5625 559.219 85.7188C560.365 90.875 560.938 96.9167 560.938 103.844ZM539.062 109.469V103.844C539.062 99.7812 538.828 96.3177 538.359 93.4531C537.943 90.5885 537.266 88.2448 536.328 86.4219C535.391 84.599 534.167 83.2708 532.656 82.4375C531.146 81.6042 529.297 81.1875 527.109 81.1875C524.974 81.1875 523.099 81.6042 521.484 82.4375C519.922 83.2708 518.646 84.4948 517.656 86.1094C516.667 87.6719 515.911 89.599 515.391 91.8906C514.87 94.1302 514.583 96.6823 514.531 99.5469V114.859C514.635 118.245 515.078 121.24 515.859 123.844C516.693 126.448 518.021 128.531 519.844 130.094C521.667 131.604 524.141 132.359 527.266 132.359C529.505 132.359 531.354 131.891 532.812 130.953C534.323 130.016 535.547 128.609 536.484 126.734C537.422 124.859 538.073 122.49 538.438 119.625C538.854 116.76 539.062 113.375 539.062 109.469ZM571.875 109.625V103.922C571.875 97.3073 572.656 91.4479 574.219 86.3438C575.833 81.2396 578.125 76.9688 581.094 73.5312C584.062 70.0417 587.63 67.4115 591.797 65.6406C596.016 63.8177 600.729 62.9062 605.938 62.9062C611.198 62.9062 615.911 63.8177 620.078 65.6406C624.297 67.4115 627.891 70.0417 630.859 73.5312C633.88 76.9688 636.198 81.2396 637.812 86.3438C639.427 91.4479 640.234 97.3073 640.234 103.922V109.625C640.234 116.188 639.427 122.021 637.812 127.125C636.198 132.229 633.88 136.526 630.859 140.016C627.891 143.505 624.323 146.135 620.156 147.906C615.99 149.677 611.302 150.562 606.094 150.562C600.885 150.562 596.172 149.677 591.953 147.906C587.786 146.135 584.193 143.505 581.172 140.016C578.151 136.526 575.833 132.229 574.219 127.125C572.656 122.021 571.875 116.188 571.875 109.625ZM593.75 103.922V109.625C593.75 113.531 594.01 116.917 594.531 119.781C595.104 122.646 595.911 125.016 596.953 126.891C598.047 128.766 599.349 130.146 600.859 131.031C602.37 131.917 604.115 132.359 606.094 132.359C608.073 132.359 609.844 131.917 611.406 131.031C612.969 130.146 614.245 128.766 615.234 126.891C616.276 125.016 617.031 122.646 617.5 119.781C618.021 116.917 618.281 113.531 618.281 109.625V103.922C618.281 100.12 617.995 96.7865 617.422 93.9219C616.849 91.0052 616.042 88.6354 615 86.8125C613.958 84.9375 612.656 83.5312 611.094 82.5938C609.583 81.6042 607.865 81.1094 605.938 81.1094C604.01 81.1094 602.292 81.6042 600.781 82.5938C599.323 83.5312 598.047 84.9375 596.953 86.8125C595.911 88.6354 595.104 91.0052 594.531 93.9219C594.01 96.7865 593.75 100.12 593.75 103.922ZM675.938 83.2969V149H654.062V64.4688H674.688L675.938 83.2969ZM695.859 63.8438L695.547 85.6406C694.557 85.4323 693.359 85.276 691.953 85.1719C690.599 85.0677 689.401 85.0156 688.359 85.0156C685.911 85.0156 683.828 85.4062 682.109 86.1875C680.391 86.9167 678.958 88.0365 677.812 89.5469C676.719 91.0052 675.885 92.8281 675.312 95.0156C674.74 97.2031 674.401 99.6771 674.297 102.438L670.156 100.875C670.156 95.3542 670.573 90.3021 671.406 85.7188C672.292 81.0833 673.594 77.0729 675.312 73.6875C677.031 70.25 679.089 67.5938 681.484 65.7188C683.932 63.8438 686.693 62.9062 689.766 62.9062C690.807 62.9062 691.901 63.0104 693.047 63.2188C694.245 63.375 695.182 63.5833 695.859 63.8438ZM747.812 64.4688V80.9531H704.688V64.4688H747.812ZM714.609 43.6094H736.406V123.219C736.406 125.562 736.641 127.359 737.109 128.609C737.578 129.859 738.281 130.745 739.219 131.266C740.208 131.734 741.51 131.969 743.125 131.969C744.219 131.969 745.234 131.917 746.172 131.812C747.109 131.656 747.812 131.5 748.281 131.344V148.453C746.562 149.13 744.74 149.651 742.812 150.016C740.938 150.38 738.698 150.562 736.094 150.562C731.719 150.562 727.917 149.729 724.688 148.062C721.51 146.396 719.036 143.74 717.266 140.094C715.495 136.396 714.609 131.552 714.609 125.562V43.6094ZM797.5 126.188C797.5 124.729 797.005 123.427 796.016 122.281C795.026 121.135 793.464 119.964 791.328 118.766C789.193 117.516 786.354 116.135 782.812 114.625C778.958 113.062 775.547 111.448 772.578 109.781C769.609 108.115 767.083 106.266 765 104.234C762.969 102.203 761.432 99.8854 760.391 97.2812C759.349 94.6771 758.828 91.7083 758.828 88.375C758.828 84.7812 759.479 81.474 760.781 78.4531C762.135 75.3802 764.062 72.6979 766.562 70.4062C769.062 68.0625 772.109 66.2396 775.703 64.9375C779.349 63.5833 783.438 62.9062 787.969 62.9062C794.323 62.9062 799.766 64.026 804.297 66.2656C808.88 68.4531 812.396 71.526 814.844 75.4844C817.292 79.4427 818.516 84.0521 818.516 89.3125H796.641C796.641 87.4375 796.354 85.7708 795.781 84.3125C795.208 82.8021 794.271 81.6302 792.969 80.7969C791.719 79.9635 790.026 79.5469 787.891 79.5469C786.328 79.5469 784.922 79.8854 783.672 80.5625C782.474 81.2396 781.51 82.151 780.781 83.2969C780.104 84.3906 779.766 85.6927 779.766 87.2031C779.766 88.349 780 89.3646 780.469 90.25C780.99 91.1354 781.797 91.9948 782.891 92.8281C783.984 93.6615 785.443 94.5469 787.266 95.4844C789.141 96.3698 791.432 97.3594 794.141 98.4531C799.766 100.536 804.375 102.776 807.969 105.172C811.615 107.568 814.323 110.38 816.094 113.609C817.865 116.786 818.75 120.719 818.75 125.406C818.75 129.156 818.021 132.568 816.562 135.641C815.156 138.714 813.099 141.37 810.391 143.609C807.682 145.849 804.427 147.568 800.625 148.766C796.875 149.964 792.682 150.562 788.047 150.562C781.224 150.562 775.469 149.208 770.781 146.5C766.094 143.792 762.552 140.328 760.156 136.109C757.76 131.839 756.562 127.411 756.562 122.828H777.344C777.448 125.641 777.969 127.854 778.906 129.469C779.896 131.031 781.224 132.125 782.891 132.75C784.557 133.375 786.406 133.688 788.438 133.688C790.469 133.688 792.135 133.427 793.438 132.906C794.792 132.333 795.807 131.474 796.484 130.328C797.161 129.13 797.5 127.75 797.5 126.188Z" fill="#FDFEFF"/>
<path d="M50.3516 221.125V278H42.7734L14.1406 234.133V278H6.60156V221.125H14.1406L42.8906 265.109V221.125H50.3516ZM80.1562 278.781C77.2135 278.781 74.5443 278.286 72.1484 277.297C69.7786 276.281 67.7344 274.862 66.0156 273.039C64.3229 271.216 63.0208 269.055 62.1094 266.555C61.1979 264.055 60.7422 261.32 60.7422 258.352V256.711C60.7422 253.273 61.25 250.214 62.2656 247.531C63.2812 244.823 64.6615 242.531 66.4062 240.656C68.151 238.781 70.1302 237.362 72.3438 236.398C74.5573 235.435 76.849 234.953 79.2188 234.953C82.2396 234.953 84.8438 235.474 87.0312 236.516C89.2448 237.557 91.0547 239.016 92.4609 240.891C93.8672 242.74 94.9089 244.927 95.5859 247.453C96.263 249.953 96.6016 252.688 96.6016 255.656V258.898H65.0391V253H89.375V252.453C89.2708 250.578 88.8802 248.755 88.2031 246.984C87.5521 245.214 86.5104 243.755 85.0781 242.609C83.6458 241.464 81.6927 240.891 79.2188 240.891C77.5781 240.891 76.0677 241.242 74.6875 241.945C73.3073 242.622 72.1224 243.638 71.1328 244.992C70.1432 246.346 69.375 248 68.8281 249.953C68.2812 251.906 68.0078 254.159 68.0078 256.711V258.352C68.0078 260.357 68.2812 262.245 68.8281 264.016C69.401 265.76 70.2214 267.297 71.2891 268.625C72.3828 269.953 73.6979 270.995 75.2344 271.75C76.7969 272.505 78.5677 272.883 80.5469 272.883C83.099 272.883 85.2604 272.362 87.0312 271.32C88.8021 270.279 90.3516 268.885 91.6797 267.141L96.0547 270.617C95.1432 271.997 93.9844 273.312 92.5781 274.562C91.1719 275.812 89.4401 276.828 87.3828 277.609C85.3516 278.391 82.9427 278.781 80.1562 278.781ZM109.922 235.734L119.18 251.125L128.555 235.734H137.031L123.203 256.594L137.461 278H129.102L119.336 262.141L109.57 278H101.172L115.391 256.594L101.602 235.734H109.922ZM162.422 235.734V241.281H139.57V235.734H162.422ZM147.305 225.461H154.531V267.531C154.531 268.964 154.753 270.044 155.195 270.773C155.638 271.503 156.211 271.984 156.914 272.219C157.617 272.453 158.372 272.57 159.18 272.57C159.779 272.57 160.404 272.518 161.055 272.414C161.732 272.284 162.24 272.18 162.578 272.102L162.617 278C162.044 278.182 161.289 278.352 160.352 278.508C159.44 278.69 158.333 278.781 157.031 278.781C155.26 278.781 153.633 278.43 152.148 277.727C150.664 277.023 149.479 275.852 148.594 274.211C147.734 272.544 147.305 270.305 147.305 267.492V225.461ZM226.328 271.867V278H197.891V271.867H226.328ZM199.375 221.125V278H191.836V221.125H199.375ZM251.406 278.781C248.464 278.781 245.794 278.286 243.398 277.297C241.029 276.281 238.984 274.862 237.266 273.039C235.573 271.216 234.271 269.055 233.359 266.555C232.448 264.055 231.992 261.32 231.992 258.352V256.711C231.992 253.273 232.5 250.214 233.516 247.531C234.531 244.823 235.911 242.531 237.656 240.656C239.401 238.781 241.38 237.362 243.594 236.398C245.807 235.435 248.099 234.953 250.469 234.953C253.49 234.953 256.094 235.474 258.281 236.516C260.495 237.557 262.305 239.016 263.711 240.891C265.117 242.74 266.159 244.927 266.836 247.453C267.513 249.953 267.852 252.688 267.852 255.656V258.898H236.289V253H260.625V252.453C260.521 250.578 260.13 248.755 259.453 246.984C258.802 245.214 257.76 243.755 256.328 242.609C254.896 241.464 252.943 240.891 250.469 240.891C248.828 240.891 247.318 241.242 245.938 241.945C244.557 242.622 243.372 243.638 242.383 244.992C241.393 246.346 240.625 248 240.078 249.953C239.531 251.906 239.258 254.159 239.258 256.711V258.352C239.258 260.357 239.531 262.245 240.078 264.016C240.651 265.76 241.471 267.297 242.539 268.625C243.633 269.953 244.948 270.995 246.484 271.75C248.047 272.505 249.818 272.883 251.797 272.883C254.349 272.883 256.51 272.362 258.281 271.32C260.052 270.279 261.602 268.885 262.93 267.141L267.305 270.617C266.393 271.997 265.234 273.312 263.828 274.562C262.422 275.812 260.69 276.828 258.633 277.609C256.602 278.391 254.193 278.781 251.406 278.781ZM288.594 271.477L300.156 235.734H307.539L292.344 278H287.5L288.594 271.477ZM278.945 235.734L290.859 271.672L291.68 278H286.836L271.523 235.734H278.945ZM331.484 278.781C328.542 278.781 325.872 278.286 323.477 277.297C321.107 276.281 319.062 274.862 317.344 273.039C315.651 271.216 314.349 269.055 313.438 266.555C312.526 264.055 312.07 261.32 312.07 258.352V256.711C312.07 253.273 312.578 250.214 313.594 247.531C314.609 244.823 315.99 242.531 317.734 240.656C319.479 238.781 321.458 237.362 323.672 236.398C325.885 235.435 328.177 234.953 330.547 234.953C333.568 234.953 336.172 235.474 338.359 236.516C340.573 237.557 342.383 239.016 343.789 240.891C345.195 242.74 346.237 244.927 346.914 247.453C347.591 249.953 347.93 252.688 347.93 255.656V258.898H316.367V253H340.703V252.453C340.599 250.578 340.208 248.755 339.531 246.984C338.88 245.214 337.839 243.755 336.406 242.609C334.974 241.464 333.021 240.891 330.547 240.891C328.906 240.891 327.396 241.242 326.016 241.945C324.635 242.622 323.451 243.638 322.461 244.992C321.471 246.346 320.703 248 320.156 249.953C319.609 251.906 319.336 254.159 319.336 256.711V258.352C319.336 260.357 319.609 262.245 320.156 264.016C320.729 265.76 321.549 267.297 322.617 268.625C323.711 269.953 325.026 270.995 326.562 271.75C328.125 272.505 329.896 272.883 331.875 272.883C334.427 272.883 336.589 272.362 338.359 271.32C340.13 270.279 341.68 268.885 343.008 267.141L347.383 270.617C346.471 271.997 345.312 273.312 343.906 274.562C342.5 275.812 340.768 276.828 338.711 277.609C336.68 278.391 334.271 278.781 331.484 278.781ZM364.219 218V278H356.953V218H364.219ZM411.719 260.812L423.008 221.125H428.477L425.312 236.555L413.164 278H407.734L411.719 260.812ZM400.039 221.125L409.023 260.031L411.719 278H406.328L392.539 221.125H400.039ZM443.086 259.992L451.875 221.125H459.414L445.664 278H440.273L443.086 259.992ZM429.297 221.125L440.273 260.812L444.258 278H438.828L427.109 236.555L423.906 221.125H429.297ZM482.969 278.781C480.026 278.781 477.357 278.286 474.961 277.297C472.591 276.281 470.547 274.862 468.828 273.039C467.135 271.216 465.833 269.055 464.922 266.555C464.01 264.055 463.555 261.32 463.555 258.352V256.711C463.555 253.273 464.062 250.214 465.078 247.531C466.094 244.823 467.474 242.531 469.219 240.656C470.964 238.781 472.943 237.362 475.156 236.398C477.37 235.435 479.661 234.953 482.031 234.953C485.052 234.953 487.656 235.474 489.844 236.516C492.057 237.557 493.867 239.016 495.273 240.891C496.68 242.74 497.721 244.927 498.398 247.453C499.076 249.953 499.414 252.688 499.414 255.656V258.898H467.852V253H492.188V252.453C492.083 250.578 491.693 248.755 491.016 246.984C490.365 245.214 489.323 243.755 487.891 242.609C486.458 241.464 484.505 240.891 482.031 240.891C480.391 240.891 478.88 241.242 477.5 241.945C476.12 242.622 474.935 243.638 473.945 244.992C472.956 246.346 472.188 248 471.641 249.953C471.094 251.906 470.82 254.159 470.82 256.711V258.352C470.82 260.357 471.094 262.245 471.641 264.016C472.214 265.76 473.034 267.297 474.102 268.625C475.195 269.953 476.51 270.995 478.047 271.75C479.609 272.505 481.38 272.883 483.359 272.883C485.911 272.883 488.073 272.362 489.844 271.32C491.615 270.279 493.164 268.885 494.492 267.141L498.867 270.617C497.956 271.997 496.797 273.312 495.391 274.562C493.984 275.812 492.253 276.828 490.195 277.609C488.164 278.391 485.755 278.781 482.969 278.781ZM525.391 278.781C522.448 278.781 519.779 278.286 517.383 277.297C515.013 276.281 512.969 274.862 511.25 273.039C509.557 271.216 508.255 269.055 507.344 266.555C506.432 264.055 505.977 261.32 505.977 258.352V256.711C505.977 253.273 506.484 250.214 507.5 247.531C508.516 244.823 509.896 242.531 511.641 240.656C513.385 238.781 515.365 237.362 517.578 236.398C519.792 235.435 522.083 234.953 524.453 234.953C527.474 234.953 530.078 235.474 532.266 236.516C534.479 237.557 536.289 239.016 537.695 240.891C539.102 242.74 540.143 244.927 540.82 247.453C541.497 249.953 541.836 252.688 541.836 255.656V258.898H510.273V253H534.609V252.453C534.505 250.578 534.115 248.755 533.438 246.984C532.786 245.214 531.745 243.755 530.312 242.609C528.88 241.464 526.927 240.891 524.453 240.891C522.812 240.891 521.302 241.242 519.922 241.945C518.542 242.622 517.357 243.638 516.367 244.992C515.378 246.346 514.609 248 514.062 249.953C513.516 251.906 513.242 254.159 513.242 256.711V258.352C513.242 260.357 513.516 262.245 514.062 264.016C514.635 265.76 515.456 267.297 516.523 268.625C517.617 269.953 518.932 270.995 520.469 271.75C522.031 272.505 523.802 272.883 525.781 272.883C528.333 272.883 530.495 272.362 532.266 271.32C534.036 270.279 535.586 268.885 536.914 267.141L541.289 270.617C540.378 271.997 539.219 273.312 537.812 274.562C536.406 275.812 534.674 276.828 532.617 277.609C530.586 278.391 528.177 278.781 525.391 278.781ZM557.539 218V278H550.273V218H557.539ZM583.359 235.734L564.922 255.461L554.609 266.164L554.023 258.469L561.406 249.641L574.531 235.734H583.359ZM576.758 278L561.68 257.844L565.43 251.398L585.273 278H576.758ZM628.203 278.781C625.26 278.781 622.591 278.286 620.195 277.297C617.826 276.281 615.781 274.862 614.062 273.039C612.37 271.216 611.068 269.055 610.156 266.555C609.245 264.055 608.789 261.32 608.789 258.352V256.711C608.789 253.273 609.297 250.214 610.312 247.531C611.328 244.823 612.708 242.531 614.453 240.656C616.198 238.781 618.177 237.362 620.391 236.398C622.604 235.435 624.896 234.953 627.266 234.953C630.286 234.953 632.891 235.474 635.078 236.516C637.292 237.557 639.102 239.016 640.508 240.891C641.914 242.74 642.956 244.927 643.633 247.453C644.31 249.953 644.648 252.688 644.648 255.656V258.898H613.086V253H637.422V252.453C637.318 250.578 636.927 248.755 636.25 246.984C635.599 245.214 634.557 243.755 633.125 242.609C631.693 241.464 629.74 240.891 627.266 240.891C625.625 240.891 624.115 241.242 622.734 241.945C621.354 242.622 620.169 243.638 619.18 244.992C618.19 246.346 617.422 248 616.875 249.953C616.328 251.906 616.055 254.159 616.055 256.711V258.352C616.055 260.357 616.328 262.245 616.875 264.016C617.448 265.76 618.268 267.297 619.336 268.625C620.43 269.953 621.745 270.995 623.281 271.75C624.844 272.505 626.615 272.883 628.594 272.883C631.146 272.883 633.307 272.362 635.078 271.32C636.849 270.279 638.398 268.885 639.727 267.141L644.102 270.617C643.19 271.997 642.031 273.312 640.625 274.562C639.219 275.812 637.487 276.828 635.43 277.609C633.398 278.391 630.99 278.781 628.203 278.781ZM684.492 263.625C684.492 262.297 684.284 261.125 683.867 260.109C683.477 259.068 682.773 258.13 681.758 257.297C680.768 256.464 679.388 255.669 677.617 254.914C675.872 254.159 673.659 253.391 670.977 252.609C668.164 251.776 665.625 250.852 663.359 249.836C661.094 248.794 659.154 247.609 657.539 246.281C655.924 244.953 654.688 243.43 653.828 241.711C652.969 239.992 652.539 238.026 652.539 235.812C652.539 233.599 652.995 231.555 653.906 229.68C654.818 227.805 656.12 226.177 657.812 224.797C659.531 223.391 661.576 222.297 663.945 221.516C666.315 220.734 668.958 220.344 671.875 220.344C676.146 220.344 679.766 221.164 682.734 222.805C685.729 224.419 688.008 226.542 689.57 229.172C691.133 231.776 691.914 234.562 691.914 237.531H684.414C684.414 235.396 683.958 233.508 683.047 231.867C682.135 230.201 680.755 228.898 678.906 227.961C677.057 226.997 674.714 226.516 671.875 226.516C669.193 226.516 666.979 226.919 665.234 227.727C663.49 228.534 662.188 229.628 661.328 231.008C660.495 232.388 660.078 233.964 660.078 235.734C660.078 236.932 660.326 238.026 660.82 239.016C661.341 239.979 662.135 240.878 663.203 241.711C664.297 242.544 665.677 243.312 667.344 244.016C669.036 244.719 671.055 245.396 673.398 246.047C676.628 246.958 679.414 247.974 681.758 249.094C684.102 250.214 686.029 251.477 687.539 252.883C689.076 254.263 690.208 255.839 690.938 257.609C691.693 259.354 692.07 261.333 692.07 263.547C692.07 265.865 691.602 267.961 690.664 269.836C689.727 271.711 688.385 273.312 686.641 274.641C684.896 275.969 682.799 276.997 680.352 277.727C677.93 278.43 675.221 278.781 672.227 278.781C669.596 278.781 667.005 278.417 664.453 277.688C661.927 276.958 659.622 275.865 657.539 274.406C655.482 272.948 653.828 271.151 652.578 269.016C651.354 266.854 650.742 264.354 650.742 261.516H658.242C658.242 263.469 658.62 265.148 659.375 266.555C660.13 267.935 661.159 269.081 662.461 269.992C663.789 270.904 665.286 271.581 666.953 272.023C668.646 272.44 670.404 272.648 672.227 272.648C674.857 272.648 677.083 272.284 678.906 271.555C680.729 270.826 682.109 269.784 683.047 268.43C684.01 267.076 684.492 265.474 684.492 263.625ZM707.812 243.859V294.25H700.547V235.734H707.188L707.812 243.859ZM736.289 256.516V257.336C736.289 260.409 735.924 263.26 735.195 265.891C734.466 268.495 733.398 270.76 731.992 272.688C730.612 274.615 728.906 276.112 726.875 277.18C724.844 278.247 722.513 278.781 719.883 278.781C717.201 278.781 714.831 278.339 712.773 277.453C710.716 276.568 708.971 275.279 707.539 273.586C706.107 271.893 704.961 269.862 704.102 267.492C703.268 265.122 702.695 262.453 702.383 259.484V255.109C702.695 251.984 703.281 249.185 704.141 246.711C705 244.237 706.133 242.128 707.539 240.383C708.971 238.612 710.703 237.271 712.734 236.359C714.766 235.422 717.109 234.953 719.766 234.953C722.422 234.953 724.779 235.474 726.836 236.516C728.893 237.531 730.625 238.99 732.031 240.891C733.438 242.792 734.492 245.07 735.195 247.727C735.924 250.357 736.289 253.286 736.289 256.516ZM729.023 257.336V256.516C729.023 254.406 728.802 252.427 728.359 250.578C727.917 248.703 727.227 247.062 726.289 245.656C725.378 244.224 724.206 243.104 722.773 242.297C721.341 241.464 719.635 241.047 717.656 241.047C715.833 241.047 714.245 241.359 712.891 241.984C711.562 242.609 710.43 243.456 709.492 244.523C708.555 245.565 707.786 246.763 707.188 248.117C706.615 249.445 706.185 250.826 705.898 252.258V262.375C706.419 264.198 707.148 265.917 708.086 267.531C709.023 269.12 710.273 270.409 711.836 271.398C713.398 272.362 715.365 272.844 717.734 272.844C719.688 272.844 721.367 272.44 722.773 271.633C724.206 270.799 725.378 269.667 726.289 268.234C727.227 266.802 727.917 265.161 728.359 263.312C728.802 261.438 729.023 259.445 729.023 257.336ZM743.594 257.336V256.438C743.594 253.391 744.036 250.565 744.922 247.961C745.807 245.331 747.083 243.052 748.75 241.125C750.417 239.172 752.435 237.661 754.805 236.594C757.174 235.5 759.831 234.953 762.773 234.953C765.742 234.953 768.411 235.5 770.781 236.594C773.177 237.661 775.208 239.172 776.875 241.125C778.568 243.052 779.857 245.331 780.742 247.961C781.628 250.565 782.07 253.391 782.07 256.438V257.336C782.07 260.383 781.628 263.208 780.742 265.812C779.857 268.417 778.568 270.695 776.875 272.648C775.208 274.576 773.19 276.086 770.82 277.18C768.477 278.247 765.82 278.781 762.852 278.781C759.883 278.781 757.214 278.247 754.844 277.18C752.474 276.086 750.443 274.576 748.75 272.648C747.083 270.695 745.807 268.417 744.922 265.812C744.036 263.208 743.594 260.383 743.594 257.336ZM750.82 256.438V257.336C750.82 259.445 751.068 261.438 751.562 263.312C752.057 265.161 752.799 266.802 753.789 268.234C754.805 269.667 756.068 270.799 757.578 271.633C759.089 272.44 760.846 272.844 762.852 272.844C764.831 272.844 766.562 272.44 768.047 271.633C769.557 270.799 770.807 269.667 771.797 268.234C772.786 266.802 773.529 265.161 774.023 263.312C774.544 261.438 774.805 259.445 774.805 257.336V256.438C774.805 254.354 774.544 252.388 774.023 250.539C773.529 248.664 772.773 247.01 771.758 245.578C770.768 244.12 769.518 242.974 768.008 242.141C766.523 241.307 764.779 240.891 762.773 240.891C760.794 240.891 759.049 241.307 757.539 242.141C756.055 242.974 754.805 244.12 753.789 245.578C752.799 247.01 752.057 248.664 751.562 250.539C751.068 252.388 750.82 254.354 750.82 256.438ZM798.359 242.375V278H791.133V235.734H798.164L798.359 242.375ZM811.562 235.5L811.523 242.219C810.924 242.089 810.352 242.01 809.805 241.984C809.284 241.932 808.685 241.906 808.008 241.906C806.341 241.906 804.87 242.167 803.594 242.688C802.318 243.208 801.237 243.938 800.352 244.875C799.466 245.812 798.763 246.932 798.242 248.234C797.747 249.51 797.422 250.917 797.266 252.453L795.234 253.625C795.234 251.073 795.482 248.677 795.977 246.438C796.497 244.198 797.292 242.219 798.359 240.5C799.427 238.755 800.781 237.401 802.422 236.438C804.089 235.448 806.068 234.953 808.359 234.953C808.88 234.953 809.479 235.018 810.156 235.148C810.833 235.253 811.302 235.37 811.562 235.5ZM837.891 235.734V241.281H815.039V235.734H837.891ZM822.773 225.461H830V267.531C830 268.964 830.221 270.044 830.664 270.773C831.107 271.503 831.68 271.984 832.383 272.219C833.086 272.453 833.841 272.57 834.648 272.57C835.247 272.57 835.872 272.518 836.523 272.414C837.201 272.284 837.708 272.18 838.047 272.102L838.086 278C837.513 278.182 836.758 278.352 835.82 278.508C834.909 278.69 833.802 278.781 832.5 278.781C830.729 278.781 829.102 278.43 827.617 277.727C826.133 277.023 824.948 275.852 824.062 274.211C823.203 272.544 822.773 270.305 822.773 267.492V225.461ZM870.977 266.789C870.977 265.747 870.742 264.784 870.273 263.898C869.831 262.987 868.906 262.167 867.5 261.438C866.12 260.682 864.036 260.031 861.25 259.484C858.906 258.99 856.784 258.404 854.883 257.727C853.008 257.049 851.406 256.229 850.078 255.266C848.776 254.302 847.773 253.169 847.07 251.867C846.367 250.565 846.016 249.042 846.016 247.297C846.016 245.63 846.38 244.055 847.109 242.57C847.865 241.086 848.919 239.771 850.273 238.625C851.654 237.479 853.307 236.581 855.234 235.93C857.161 235.279 859.31 234.953 861.68 234.953C865.065 234.953 867.956 235.552 870.352 236.75C872.747 237.948 874.583 239.549 875.859 241.555C877.135 243.534 877.773 245.734 877.773 248.156H870.547C870.547 246.984 870.195 245.852 869.492 244.758C868.815 243.638 867.812 242.714 866.484 241.984C865.182 241.255 863.581 240.891 861.68 240.891C859.674 240.891 858.047 241.203 856.797 241.828C855.573 242.427 854.674 243.195 854.102 244.133C853.555 245.07 853.281 246.06 853.281 247.102C853.281 247.883 853.411 248.586 853.672 249.211C853.958 249.81 854.453 250.37 855.156 250.891C855.859 251.385 856.849 251.854 858.125 252.297C859.401 252.74 861.029 253.182 863.008 253.625C866.471 254.406 869.323 255.344 871.562 256.438C873.802 257.531 875.469 258.872 876.562 260.461C877.656 262.049 878.203 263.977 878.203 266.242C878.203 268.091 877.812 269.784 877.031 271.32C876.276 272.857 875.169 274.185 873.711 275.305C872.279 276.398 870.56 277.258 868.555 277.883C866.576 278.482 864.349 278.781 861.875 278.781C858.151 278.781 855 278.117 852.422 276.789C849.844 275.461 847.891 273.742 846.562 271.633C845.234 269.523 844.57 267.297 844.57 264.953H851.836C851.94 266.932 852.513 268.508 853.555 269.68C854.596 270.826 855.872 271.646 857.383 272.141C858.893 272.609 860.391 272.844 861.875 272.844C863.854 272.844 865.508 272.583 866.836 272.062C868.19 271.542 869.219 270.826 869.922 269.914C870.625 269.003 870.977 267.961 870.977 266.789Z" fill="#FDFEFF"/>
</svg>
